<?xml version="1.0" standalone="no"?>
<!DOCTYPE svg PUBLIC "-//W3C//DTD SVG 20010904//EN"
 "http://www.w3.org/TR/2001/REC-SVG-20010904/DTD/svg10.dtd">
<svg version="1.0" xmlns="http://www.w3.org/2000/svg"
 width="512.000000pt" height="512.000000pt" viewBox="0 0 512.000000 512.000000"
 preserveAspectRatio="xMidYMid meet">
<metadata>
Created by potrace 1.14, written by Peter Selinger 2001-2017
</metadata>
<g transform="translate(0.000000,512.000000) scale(0.100000,-0.100000)"
fill="#000000" stroke="none">
<path d="M790 5109 c-57 -24 -93 -80 -92 -143 l1 -41 -117 -1 c-141 -2 -208
-19 -293 -76 -101 -68 -173 -183 -186 -301 -11 -99 -4 -4212 7 -4212 1 0 3 -9
5 -19 8 -43 67 -144 107 -185 52 -52 105 -84 182 -111 57 -19 89 -20 1879 -20
l1822 0 458 458 459 459 0 1804 c0 992 -3 1820 -7 1839 -28 163 -139 291 -298
345 -32 11 -90 17 -170 19 l-122 2 0 40 c-1 47 -28 98 -68 128 -39 29 -125 29
-164 0 -41 -30 -65 -77 -65 -126 l0 -43 -281 0 -280 0 -2 46 c-3 60 -30 104
-78 128 -106 53 -217 -17 -217 -136 l0 -38 -282 0 -283 0 3 37 c5 55 -34 122
-83 142 -105 42 -206 -19 -210 -128 l-2 -51 -281 0 -282 0 0 43 c0 88 -57 146
-146 147 -86 0 -149 -60 -148 -143 l1 -47 -283 0 -283 0 1 42 c1 47 -24 96
-62 124 -30 23 -106 33 -140 18z m3998 -2434 l0 -1663 -24 -23 c-24 -23 -30
-23 -237 -25 -189 -1 -218 -4 -267 -23 -67 -25 -135 -88 -170 -157 -24 -47
-25 -57 -28 -274 -3 -222 -4 -225 -28 -250 l-24 -26 -1762 1 -1763 1 -45 22
c-51 25 -88 72 -100 129 -5 20 -9 918 -9 1995 l0 1957 2229 0 2228 0 0 -1664z"/>
<path d="M3206 3976 c-132 -56 -210 -180 -201 -320 5 -77 16 -114 55 -182 38
-68 65 -99 115 -134 64 -44 136 -60 205 -47 41 8 113 53 153 96 181 193 147
480 -68 580 -77 36 -183 39 -259 7z"/>
<path d="M1310 3475 l0 -185 -77 -1 c-43 -1 -84 -1 -91 0 -10 2 -12 -22 -11
-106 l3 -108 -90 -3 -90 -3 0 -1057 1 -1057 900 0 900 0 0 456 0 455 -52 1
c-120 2 -220 98 -225 218 -1 42 9 168 18 207 3 13 5 98 6 190 1 153 3 167 20
171 13 4 18 15 19 39 0 18 3 45 5 61 5 27 5 27 -56 27 -69 0 -63 -13 -61 138
l1 82 -155 0 c-85 0 -155 -3 -156 -7 -1 -5 -2 -53 -3 -108 l-1 -100 -77 -3
c-70 -3 -78 -5 -78 -22 0 -18 -8 -20 -67 -21 -38 -1 -76 -1 -85 0 -20 2 -18
119 -18 -1045 l0 -652 -38 2 -37 1 -2 970 c-1 534 -2 989 -2 1013 l-1 42 -90
0 -91 0 2 68 c0 37 1 86 0 109 l-1 43 -57 -1 c-32 -1 -72 -1 -88 0 l-31 1 1
185 0 185 -22 0 -23 0 0 -185z m163 -234 c15 -1 17 -12 17 -86 l0 -84 -155 -3
c-132 -3 -155 -1 -156 12 -1 21 -1 132 0 150 1 13 23 15 139 13 75 0 145 -1
155 -2z m-267 -401 c0 -77 -2 -141 -5 -141 -3 -1 -41 -3 -83 -4 l-77 -1 0 143
1 143 82 0 82 0 0 -140z m208 13 c-1 -71 -2 -135 -3 -144 -1 -13 -15 -16 -81
-15 l-80 0 0 143 0 143 83 0 82 0 -1 -127z m967 95 c0 -4 1 -38 2 -75 l1 -68
-112 -1 -112 0 0 76 0 76 110 0 c61 0 110 -3 111 -8z m-966 -442 l0 -144 -80
1 -80 2 -3 143 -3 142 83 0 83 0 0 -144z m206 137 c0 -5 1 -69 2 -143 l1 -135
-82 -1 -82 -2 0 144 0 144 80 0 c44 0 80 -3 81 -7z m629 -137 l0 -144 -62 0
c-112 0 -104 -13 -102 145 1 76 2 139 3 141 0 1 37 2 81 2 l80 0 0 -144z
m-1044 -328 l-1 -143 -80 0 -80 0 -1 143 -1 142 82 0 81 0 0 -142z m416 130
c2 -7 3 -71 3 -143 l-1 -130 -82 -2 -82 -2 0 145 0 144 79 0 c54 0 80 -4 83
-12z m416 -130 l-3 -143 -75 -1 c-41 -1 -77 2 -80 6 -4 6 -5 267 -1 278 1 1
37 2 81 2 l81 0 -3 -142z m419 -4 l2 -142 -82 2 -82 1 0 143 -1 143 81 -3 80
-3 2 -141z m-1251 -326 l-1 -143 -81 -2 -82 -2 0 145 0 144 82 0 82 0 0 -142z
m417 12 c-1 -69 -1 -133 -2 -142 -1 -14 -13 -16 -81 -16 l-80 0 0 145 0 144
82 -3 82 -3 -1 -125z m627 -13 l0 -143 -80 -2 c-44 -1 -81 1 -81 5 -4 22 -5
269 -2 276 2 4 40 7 84 7 l79 0 0 -143z m206 1 l-1 -143 -80 -2 -80 -3 -1 145
-1 145 83 0 82 0 -2 -142z m-1250 -332 l-1 -141 -80 0 -80 0 -2 130 c-1 72 0
135 2 141 2 7 32 11 82 11 l79 0 0 -141z m205 126 c4 -62 5 -249 1 -259 -3 -9
-29 -13 -83 -13 l-79 0 0 143 0 144 80 1 c69 1 80 -1 81 -16z m210 0 c0 -10 1
-73 2 -142 l1 -125 -82 -3 -82 -3 0 145 0 144 80 0 c67 0 80 -3 81 -16z m419
-127 l0 -145 -80 0 c-57 0 -80 4 -81 13 -1 14 -1 246 0 264 1 7 28 11 81 12
l80 1 0 -145z m415 0 l0 -140 -81 -3 -80 -3 0 138 c0 85 4 141 10 145 6 4 42
6 81 5 l70 -2 0 -140z m211 -2 l0 -144 -82 2 -82 2 0 142 0 143 83 0 82 -1 -1
-144z m-1252 -328 l0 -140 -82 -2 -82 -2 0 144 0 144 82 -2 83 -2 -1 -140z
m836 0 l0 -144 -82 2 -83 2 -1 135 c0 74 1 138 3 141 1 3 38 6 83 7 l80 1 0
-144z m208 -1 l-1 -144 -81 2 -81 3 -1 135 c-1 74 1 138 3 142 2 4 39 6 82 6
l79 0 0 -144z"/>
<path d="M3210 3252 c-62 -4 -240 -43 -343 -73 -155 -46 -179 -72 -192 -199
-3 -36 -8 -83 -11 -105 -5 -44 -10 -87 -19 -180 -4 -33 -8 -71 -10 -85 -2 -14
-7 -54 -11 -90 -4 -36 -8 -76 -10 -90 -2 -14 -6 -54 -10 -90 -3 -36 -8 -74
-10 -84 -2 -10 -6 -56 -10 -101 -7 -91 4 -126 52 -164 52 -41 149 -20 178 38
18 34 23 60 41 224 5 48 10 92 20 182 4 28 8 70 10 95 2 25 7 63 9 85 3 22 8
63 11 90 5 47 7 65 20 175 5 41 20 64 35 55 8 -5 4 -951 -3 -1015 -6 -46 -13
-130 -22 -245 -3 -36 -7 -93 -10 -127 -3 -35 -7 -90 -10 -123 -3 -33 -7 -87
-10 -120 -13 -157 -15 -185 -20 -250 -8 -116 -17 -218 -20 -255 -9 -86 36
-158 113 -181 68 -20 142 12 175 77 16 32 21 69 42 344 3 41 8 95 10 120 5 59
17 206 20 250 4 62 16 204 20 245 2 22 7 85 10 140 4 55 8 101 10 103 2 2 31
4 64 5 59 2 61 1 62 -23 0 -14 2 -33 4 -42 2 -10 6 -57 9 -105 4 -48 8 -106
10 -128 2 -22 7 -80 11 -130 4 -49 9 -106 10 -126 2 -19 6 -76 10 -125 3 -49
8 -105 10 -124 2 -19 7 -73 10 -120 19 -282 27 -308 105 -348 74 -38 148 -18
194 51 28 42 28 43 21 157 -3 63 -8 133 -10 155 -2 22 -6 76 -10 120 -13 163
-15 191 -19 240 -3 28 -8 86 -11 130 -3 44 -8 103 -10 130 -2 28 -7 91 -11
140 -3 50 -10 122 -14 160 -10 91 -13 1025 -3 1025 23 -1 31 -22 37 -95 4 -44
9 -87 11 -95 2 -8 7 -45 10 -82 3 -37 7 -75 9 -85 2 -10 7 -54 10 -98 4 -44 9
-87 11 -95 2 -8 6 -46 10 -85 3 -38 8 -77 10 -85 2 -8 7 -46 10 -85 8 -79 23
-115 62 -143 27 -19 34 -22 51 -22 5 0 9 -13 10 -30 0 -22 -4 -30 -16 -31 -78
-3 -107 -9 -118 -24 -10 -14 -13 -108 -14 -419 0 -347 2 -405 16 -424 15 -21
22 -22 174 -22 155 0 160 1 174 22 11 19 14 94 12 430 -1 395 -2 408 -21 422
-11 8 -36 14 -55 14 -70 -1 -69 -2 -67 47 1 25 4 45 7 45 3 0 13 13 23 29 21
35 26 87 16 150 -4 25 -10 75 -13 111 -4 36 -9 81 -11 100 -3 19 -7 62 -10 95
-3 33 -8 71 -10 85 -2 14 -6 54 -10 90 -3 36 -8 81 -11 100 -2 19 -6 53 -9 75
-5 50 -14 137 -20 188 -8 62 -29 93 -80 119 -59 30 -305 93 -413 105 -103 12
-105 11 -123 -27 -9 -19 -15 -44 -14 -55 2 -11 6 -36 9 -55 6 -40 45 -348 51
-400 3 -19 9 -69 15 -110 7 -42 8 -84 3 -95 -13 -32 -84 -154 -92 -160 -9 -5
-113 173 -107 183 2 4 7 32 10 62 7 58 8 70 26 203 6 45 13 99 15 120 3 20 7
56 10 80 3 23 10 75 16 116 9 63 8 79 -6 112 -11 23 -24 37 -34 36 -9 -1 -32
-3 -51 -5z"/>
</g>
</svg>
